<svg id="visual" viewBox="0 0 900 450" width="900" height="450" xmlns="http://www.w3.org/2000/svg" xmlns:xlink="http://www.w3.org/1999/xlink" version="1.1"><path d="M0 357L21.5 347.8C43 338.7 86 320.3 128.8 318.5C171.7 316.7 214.3 331.3 257.2 338.5C300 345.7 343 345.3 385.8 341C428.7 336.7 471.3 328.3 514.2 322.8C557 317.3 600 314.7 642.8 312.3C685.7 310 728.3 308 771.2 312.8C814 317.7 857 329.3 878.5 335.2L900 341L900 451L878.5 451C857 451 814 451 771.2 451C728.3 451 685.7 451 642.8 451C600 451 557 451 514.2 451C471.3 451 428.7 451 385.8 451C343 451 300 451 257.2 451C214.3 451 171.7 451 128.8 451C86 451 43 451 21.5 451L0 451Z" fill="#715df2"></path><path d="M0 354L21.5 358C43 362 86 370 128.8 366C171.7 362 214.3 346 257.2 344.3C300 342.7 343 355.3 385.8 356C428.7 356.7 471.3 345.3 514.2 340.2C557 335 600 336 642.8 339C685.7 342 728.3 347 771.2 345.7C814 344.3 857 336.7 878.5 332.8L900 329L900 451L878.5 451C857 451 814 451 771.2 451C728.3 451 685.7 451 642.8 451C600 451 557 451 514.2 451C471.3 451 428.7 451 385.8 451C343 451 300 451 257.2 451C214.3 451 171.7 451 128.8 451C86 451 43 451 21.5 451L0 451Z" fill="#374fbf"></path><path d="M0 352L21.5 355.2C43 358.3 86 364.7 128.8 371C171.7 377.3 214.3 383.7 257.2 384.3C300 385 343 380 385.8 374C428.7 368 471.3 361 514.2 359C557 357 600 360 642.8 364.8C685.7 369.7 728.3 376.3 771.2 376.3C814 376.3 857 369.7 878.5 366.3L900 363L900 451L878.5 451C857 451 814 451 771.2 451C728.3 451 685.7 451 642.8 451C600 451 557 451 514.2 451C471.3 451 428.7 451 385.8 451C343 451 300 451 257.2 451C214.3 451 171.7 451 128.8 451C86 451 43 451 21.5 451L0 451Z" fill="#003d8a"></path><path d="M0 413L21.5 408.3C43 403.7 86 394.3 128.8 393.5C171.7 392.7 214.3 400.3 257.2 404.7C300 409 343 410 385.8 405.3C428.7 400.7 471.3 390.3 514.2 387.3C557 384.3 600 388.7 642.8 389.5C685.7 390.3 728.3 387.7 771.2 387.5C814 387.3 857 389.7 878.5 390.8L900 392L900 451L878.5 451C857 451 814 451 771.2 451C728.3 451 685.7 451 642.8 451C600 451 557 451 514.2 451C471.3 451 428.7 451 385.8 451C343 451 300 451 257.2 451C214.3 451 171.7 451 128.8 451C86 451 43 451 21.5 451L0 451Z" fill="#002854"></path><path d="M0 418L21.5 417.2C43 416.3 86 414.7 128.8 414.8C171.7 415 214.3 417 257.2 419.8C300 422.7 343 426.3 385.8 425.2C428.7 424 471.3 418 514.2 414.5C557 411 600 410 642.8 409.2C685.7 408.3 728.3 407.7 771.2 409.7C814 411.7 857 416.3 878.5 418.7L900 421L900 451L878.5 451C857 451 814 451 771.2 451C728.3 451 685.7 451 642.8 451C600 451 557 451 514.2 451C471.3 451 428.7 451 385.8 451C343 451 300 451 257.2 451C214.3 451 171.7 451 128.8 451C86 451 43 451 21.5 451L0 451Z" fill="#001122"></path></svg>